<?xml version="1.0" encoding="utf-8"?>
<!-- Generator: Adobe Illustrator 23.0.4, SVG Export Plug-In . SVG Version: 6.00 Build 0)  -->
<svg version="1.1" id="Шар_1" xmlns="http://www.w3.org/2000/svg" xmlns:xlink="http://www.w3.org/1999/xlink" x="0px" y="0px"
	 viewBox="0 0 139 39.7" style="enable-background:new 0 0 139 39.7;" xml:space="preserve">
<style type="text/css">
	.st0{fill-rule:evenodd;clip-rule:evenodd;fill:#373650;}
	.st1{fill-rule:evenodd;clip-rule:evenodd;fill:#00ADC7;}
	.st2{fill:#373650;}
</style>
<g>
	<g>
		<path class="st0" d="M1.9,0h14.3c1,0,1.9,0.9,1.9,1.9v14.3c0,1-0.9,1.9-1.9,1.9H1.9c-1,0-1.9-0.9-1.9-1.9V1.9C0,0.9,0.9,0,1.9,0z"
			/>
		<path class="st0" d="M22.8,0h14.3c1,0,1.9,0.9,1.9,1.9v14.3c0,1-0.9,1.9-1.9,1.9H22.8c-1,0-1.9-0.9-1.9-1.9V1.9
			C20.9,0.9,21.8,0,22.8,0z"/>
		<path class="st1" d="M1.9,20.9h14.3c1,0,1.9,0.9,1.9,1.9v14.3c0,1-0.9,1.9-1.9,1.9H1.9c-1,0-1.9-0.9-1.9-1.9V22.8
			C0,21.8,0.9,20.9,1.9,20.9z"/>
		<path class="st0" d="M22.8,20.9h14.3c1,0,1.9,0.9,1.9,1.9v14.3c0,1-0.9,1.9-1.9,1.9H22.8c-1,0-1.9-0.9-1.9-1.9V22.8
			C20.9,21.8,21.8,20.9,22.8,20.9z"/>
	</g>
	<g>
		<path class="st2" d="M53.2,14.1C53.2,14.1,53.2,14,53.2,14.1l0.1-8.9c-0.7,0-1,0.1-1.3,0.1c-0.3,0.1-0.3,0.2-0.4,0.4l-0.3,1.8
			c-0.7,0-1.4-0.1-2-0.2c0.1-1.3,0.2-2.6,0.2-3.8c0.4,0,1.1,0,1.8,0c0.5,0,3,0,3.7,0c0.6,0,3,0,3.5,0c0.8,0,1.4,0,1.8,0
			c0.1,1.3,0.2,2.5,0.2,3.8c-0.6,0.1-1.3,0.1-2,0.2l-0.3-1.8c0-0.2-0.1-0.3-0.4-0.4s-0.5-0.1-1.3-0.1l-0.1,8.9l1.4,0.1
			c0,0.5,0,1.1,0,1.6c-0.8,0-1.9,0-2.9,0c-0.9,0-2,0-3,0c0-0.5,0-1.1,0-1.6L53.2,14.1z"/>
		<path class="st2" d="M64.9,7.2c1.2,0,2.1,0.4,2.6,1c0.6,0.7,1,1.7,1,2.9c0,0.3-0.9,1.1-1,1.1c-0.5,0.1-2.4,0.1-4.1,0.1
			c0,0.6,0.3,1,0.5,1.2c0.4,0.4,0.9,0.5,1.4,0.5c0.8,0,2-0.3,2.7-0.5c0.1,0.5,0.3,1.1,0.4,1.6c-1.1,0.5-2.8,0.9-3.7,0.9
			c-2.5,0-4.4-1.2-4.4-3.9C60.2,9.4,62.1,7.2,64.9,7.2z M63.7,9.3c-0.2,0.4-0.4,0.7-0.3,1.5c0.7,0,1.6,0,2.1,0
			c0.1,0,0.2-0.1,0.2-0.2c0-0.4-0.1-0.9-0.2-1.2c-0.2-0.3-0.5-0.6-0.8-0.6C64.3,8.8,63.9,8.9,63.7,9.3z"/>
		<path class="st2" d="M74.7,15.1c-1.1,0.6-2,0.8-2.7,0.8c-1,0-2.5-1-2.5-2.2c0-1.1,1.2-2.8,4.2-2.8c0.4,0,0.7,0,0.9,0
			c0.1-0.9-0.3-1.5-1.1-1.5c-0.6,0-1.6,0.5-2.4,1.1c-0.4-0.4-0.7-0.9-1-1.4c1.4-1.1,2.8-1.8,4.6-1.8c1.5,0,2.9,1.2,2.9,2.8
			c0,1.2,0,3,0,3.8c0,0.1,0,0.2,0.1,0.2l1-0.1c0,0.5,0,1.1,0,1.5c-0.3,0.1-1.6,0.4-3.1,0.4C75.3,15.8,75.1,15.5,74.7,15.1L74.7,15.1
			z M73.4,14.1c0.5,0,1-0.2,1.3-0.4v-0.1c0-0.5,0-0.8,0-1.3c-0.1,0-0.3,0-0.4,0c-1.2,0-1.8,0.5-1.8,1.1C72.5,13.8,73,14.1,73.4,14.1
			z"/>
		<path class="st2" d="M79.5,9.3c0-0.5,0-1.1,0-1.5c0.9-0.1,3.7-0.5,3.8-0.5l0,0c0.1,0.4,0.1,0.7,0.2,1.1h0.1c1.7-1,2.1-1.2,2.8-1.2
			c1,0,1.8,1,1.9,1.2h0.1c1.9-1.1,2.2-1.2,2.9-1.2c0.8,0,1.5,0.5,2,1.1c0.3,0.4,0.6,1.1,0.6,1.7c0,1.3,0,2.9-0.1,4.1h1
			c0,0.5,0,1.1,0,1.6c-0.7,0-1.6,0-2.3,0c-0.8,0-1.7,0-2.3,0c0-0.5,0-1.1,0-1.6l0.7-0.1c0,0,0.1,0,0.1-0.1c0-1,0-2.3,0-3.2
			c0-0.3,0-0.6-0.1-0.9c-0.2-0.3-0.4-0.4-0.7-0.4c-0.4,0-0.9,0.2-1.3,0.5c0,1.2,0,3,0,4.2h0.8c0,0.5,0,1.1,0,1.6c-0.7,0-1.6,0-2.4,0
			c-0.7,0-1.5,0-2,0c0-0.5,0-1.1,0-1.6L86,14c0.1,0,0.1-0.1,0.1-0.1c0-0.9,0-2.3,0-3.4c0-0.3,0-0.6-0.1-0.8
			c-0.1-0.3-0.4-0.3-0.6-0.3c-0.4,0-1,0.2-1.4,0.5c0,1.1,0,3,0,4.1h0.8c0,0.5,0,1.1,0,1.6c-0.7,0-1.6,0-2.4,0c-0.7,0-1.6,0-2.3,0
			c0-0.5,0-1.1,0-1.6H81c0.1,0,0.1,0,0.1-0.1V9.4L79.5,9.3z"/>
		<path class="st2" d="M103.6,14.1C103.6,14.1,103.7,14,103.6,14.1l0.1-8.9c-0.7,0-1,0.1-1.3,0.1c-0.3,0.1-0.3,0.2-0.4,0.4l-0.3,1.8
			c-0.7,0-1.4-0.1-2-0.2c0.1-1.3,0.2-2.6,0.2-3.8c0.4,0,1.1,0,1.8,0c0.5,0,3,0,3.7,0c0.6,0,3,0,3.5,0c0.8,0,1.4,0,1.8,0
			c0.1,1.3,0.2,2.5,0.2,3.8c-0.6,0.1-1.3,0.1-2,0.2l-0.3-1.8c0-0.2-0.1-0.3-0.4-0.4c-0.2-0.1-0.5-0.1-1.3-0.1l-0.1,8.9l1.4,0.1
			c0,0.5,0,1.1,0,1.6c-0.8,0-1.9,0-2.9,0c-0.9,0-2,0-3,0c0-0.5,0-1.1,0-1.6L103.6,14.1z"/>
		<path class="st2" d="M115.6,15.1c-1.1,0.6-2,0.8-2.7,0.8c-1,0-2.5-1-2.5-2.2c0-1.1,1.2-2.8,4.2-2.8c0.4,0,0.7,0,0.9,0
			c0.1-0.9-0.3-1.5-1.1-1.5c-0.6,0-1.6,0.5-2.4,1.1c-0.4-0.4-0.7-0.9-1-1.4c1.4-1.1,2.8-1.8,4.6-1.8c1.5,0,2.9,1.2,2.9,2.8
			c0,1.2,0,3,0,3.8c0,0.1,0,0.2,0.1,0.2l1-0.1c0,0.5,0,1.1,0,1.5c-0.3,0.1-1.6,0.4-3.1,0.4C116.3,15.8,116,15.5,115.6,15.1
			L115.6,15.1z M114.3,14.1c0.5,0,1-0.2,1.3-0.4v-0.1c0-0.5,0-0.8,0-1.3c-0.1,0-0.3,0-0.4,0c-1.2,0-1.8,0.5-1.8,1.1
			C113.4,13.8,113.9,14.1,114.3,14.1z"/>
		<path class="st2" d="M122.4,13.8c0,0.1,0,0.1,0.2,0.2c0.3,0.2,0.7,0.3,1,0.3s0.5,0,0.7-0.1s0.4-0.3,0.4-0.6c0-0.5-0.2-0.6-1.5-0.9
			c-1.7-0.5-2.5-1.3-2.5-2.5c0-1.1,0.8-2,1.6-2.3c0.6-0.3,1.5-0.5,2.7-0.5c1,0,1.9,0.1,2.3,0.3c0.1,0.8,0.2,1.7,0.2,2.5
			c-0.5,0.1-1.1,0.2-1.7,0.2l-0.3-1c0-0.1-0.1-0.2-0.1-0.2C125.2,9,124.9,9,124.6,9c-0.2,0-0.5,0-0.7,0.2c-0.2,0.1-0.3,0.3-0.3,0.6
			c0,0.4,0.3,0.5,1.8,0.9c1.4,0.4,2.3,0.9,2.3,2.4c0,1.1-0.6,1.9-1.7,2.5c-0.6,0.3-1.6,0.5-2.8,0.5c-0.9,0-1.8-0.1-2.5-0.3
			c-0.1-0.9-0.2-1.7-0.3-2.6c0.5-0.1,1.1-0.2,1.7-0.3L122.4,13.8z"/>
		<path class="st2" d="M128.8,14.2l0.9-0.1l0.1-0.1c0-2.9,0-6.6,0-9.4h-1.2c0-0.5,0-1.1,0-1.6c1.1-0.1,4.1-0.5,4.3-0.5
			c0,0,0.1,0,0.1,0.1c0,2.2,0,5-0.1,7.9c0.3,0,0.7,0,1-0.1c0.3-0.3,0.8-0.8,1.3-1.3V9h-0.7c0-0.5,0-1.1,0-1.6c0.8,0,1.8,0,2.6,0
			c0.5,0,1.1,0,1.6,0c0,0.5,0,1.1,0,1.6L138,9.1c-0.9,0.8-1.6,1.3-2.1,1.7v0.1c0.4,0.2,0.9,0.6,1.3,1.8c0.2,0.6,0.5,1.1,0.6,1.3
			c0.1,0.1,0.2,0.2,0.3,0.2h0.9c0,0.5,0,1.1,0,1.6c-0.7,0-3.5,0-3.8,0c-0.2-0.5-0.5-1.3-0.8-2.2c-0.3-0.8-0.6-1.5-0.9-1.5
			c-0.2,0-0.5,0-0.7,0c0,0.6,0,1.5,0,2.1l0.7,0.1c0,0.5,0,1.1,0,1.5c-0.6,0-1.5,0-2.3,0s-1.7,0-2.4,0
			C128.7,15.2,128.7,14.7,128.8,14.2z"/>
		<path class="st2" d="M49.9,24.2c0-0.5,0-1.2,0-1.7c1.3,0,3.3,0,4.7,0c0.6,1.5,1.8,5.2,2.7,7.7h0.2c0.9-2.5,2-5.6,2.7-7.7
			c1.3,0,3.1,0,4.4,0c0,0.5,0,1.2,0,1.7l-0.9,0.1c0,0-0.1,0-0.1,0.1c0,2.7,0,5.9,0,8.8l1,0.1c0,0.5,0,1.1,0,1.6c-0.6,0-1.5,0-2.2,0
			c-0.9,0-2,0-2.8,0c0-0.5,0-1.1,0-1.6l1.1-0.1c0.1,0,0.1,0,0.1-0.1c0-2,0-4.1-0.1-6.4h-0.2c-1.2,3.3-2.1,5.6-2.9,7.4
			c-0.3,0-1.1,0-1.6,0c-0.9-2.1-1.7-4.3-2.8-7.6H53c0,2.3-0.1,4.5-0.1,6.7l1.3,0.1c0,0.5,0,1.1,0,1.6c-0.7,0-1.6,0-2.4,0
			c-0.7,0-1.3,0-1.9,0c0-0.5,0-1.1,0-1.6l1-0.1c0,0,0.1,0,0.1-0.1c0-2.7,0.1-6.1,0.1-8.8L49.9,24.2z"/>
		<path class="st2" d="M71.1,34.1c-1.1,0.6-2,0.8-2.7,0.8c-1,0-2.5-1-2.5-2.2c0-1.1,1.2-2.8,4.2-2.8c0.4,0,0.7,0,0.9,0
			c0.1-0.9-0.3-1.5-1.1-1.5c-0.6,0-1.6,0.5-2.4,1.1c-0.4-0.4-0.7-0.9-1-1.4c1.4-1.1,2.8-1.8,4.6-1.8c1.5,0,2.9,1.2,2.9,2.8
			c0,1.2,0,3,0,3.8c0,0.1,0,0.2,0.1,0.2l1-0.1c0,0.5,0,1.1,0,1.5c-0.3,0.1-1.6,0.4-3.1,0.4C71.8,34.8,71.5,34.5,71.1,34.1L71.1,34.1
			z M69.8,33.1c0.5,0,1-0.2,1.3-0.4v-0.1c0-0.5,0-0.8,0-1.3c-0.1,0-0.3,0-0.4,0c-1.2,0-1.8,0.5-1.8,1.1
			C68.9,32.8,69.4,33.1,69.8,33.1z"/>
		<path class="st2" d="M75.8,28.4c0-0.5,0-1.1,0-1.5c0.9-0.1,3.7-0.5,3.8-0.5l0,0c0.1,0.4,0.2,0.8,0.3,1.2H80
			c1.8-1.1,2.2-1.3,3.1-1.3c0.8,0,1.6,0.7,2,1.4c0.4,0.6,0.4,1.2,0.4,1.7c0,1.1-0.1,2.6-0.1,3.8h0.9c0,0.5,0,1.1,0,1.6
			c-0.7,0-1.6,0-2.4,0s-1.7,0-2.4,0c0-0.5,0-1.1,0-1.6h0.8c0,0,0.1,0,0.1-0.1c0-0.8,0-1.8,0-2.5c0-0.9,0-1.3-0.2-1.6
			c-0.2-0.4-0.4-0.4-0.7-0.4c-0.4,0-1.1,0.3-1.5,0.7c0,1.1-0.1,2.9-0.1,4l0.8,0.1c0,0.5,0,1.1,0,1.5c-0.7,0-1.6,0-2.4,0
			s-1.8,0-2.5,0c0-0.5,0-1.1,0-1.6h0.9c0.1,0,0.1-0.1,0.1-0.1v-4.7L75.8,28.4z"/>
		<path class="st2" d="M92.5,34.1c-1.1,0.6-2,0.8-2.7,0.8c-1,0-2.5-1-2.5-2.2c0-1.1,1.2-2.8,4.2-2.8c0.4,0,0.7,0,0.9,0
			c0.1-0.9-0.3-1.5-1.1-1.5c-0.6,0-1.6,0.5-2.4,1.1c-0.4-0.4-0.7-0.9-1-1.4c1.4-1.1,2.8-1.8,4.6-1.8c1.5,0,2.9,1.2,2.9,2.8
			c0,1.2,0,3,0,3.8c0,0.1,0,0.2,0.1,0.2l1-0.1c0,0.5,0,1.1,0,1.5c-0.3,0.1-1.6,0.4-3.1,0.4C93.1,34.8,92.9,34.5,92.5,34.1L92.5,34.1
			z M91.2,33.1c0.5,0,1-0.2,1.3-0.4v-0.1c0-0.5,0-0.8,0-1.3c-0.1,0-0.3,0-0.4,0c-1.2,0-1.8,0.5-1.8,1.1
			C90.3,32.8,90.8,33.1,91.2,33.1z"/>
		<path class="st2" d="M99.5,32.4c-0.9-0.4-2-1.3-2-2.7c0-2,2-3.5,4.4-3.5c0.8,0,1.6,0.1,1.8,0.2c0.2,0,0.3,0.1,0.4,0.1
			c0.9,0,2.3-0.1,2.8-0.2c0.1,0.5,0.1,1.2,0,1.7c-0.4,0-1.1,0-1.5,0v0.1c0.2,0.3,0.4,0.8,0.4,1.4s-0.2,1.5-0.8,2.1
			c-0.6,0.6-1.8,1.2-3.8,1.2c-0.2,0.2-0.4,0.5-0.4,0.6c0,0.4,0.4,0.5,1.9,0.5c2.1,0.1,2.6,0.2,3.3,0.6c0.6,0.5,0.9,0.8,0.9,1.8
			c0,1.2-0.9,2.3-2.5,2.9c-0.9,0.3-2,0.5-3.2,0.5c-2.7,0-4.2-0.8-4.2-2.2c0-0.2,0.1-0.4,0.4-0.6c0.8-0.6,1.4-0.9,1.8-1.2v-0.1
			c-0.7-0.3-1.4-0.7-1.4-1.7c0-0.2,0.1-0.3,1.9-1.3v-0.2H99.5z M102.4,36.1c-0.9-0.1-1.6-0.1-2-0.2c-0.3,0.4-0.5,0.7-0.5,1.2
			c0,0.7,0.8,1,1.7,1c0.6,0,1.2-0.1,1.6-0.4c0.4-0.2,0.5-0.6,0.5-1C103.8,36.4,103.6,36.2,102.4,36.1z M101.6,31.4
			c0.7,0,1.1-0.6,1.1-2c0-0.7-0.1-1-0.3-1.4c-0.2-0.3-0.5-0.4-0.8-0.4c-0.7,0-1.2,0.7-1.2,1.8C100.5,31,101,31.4,101.6,31.4z"/>
		<path class="st2" d="M112.3,26.2c1.2,0,2.1,0.4,2.6,1c0.6,0.7,1,1.7,1,2.9c0,0.3-0.9,1.1-1,1.1c-0.5,0.1-2.4,0.1-4.1,0.1
			c0,0.6,0.3,1,0.5,1.2c0.4,0.4,0.9,0.5,1.4,0.5c0.8,0,2-0.3,2.7-0.5c0.1,0.5,0.3,1.1,0.4,1.6c-1.1,0.5-2.8,0.9-3.7,0.9
			c-2.5,0-4.4-1.2-4.4-3.9C107.5,28.4,109.4,26.2,112.3,26.2z M111,28.3c-0.2,0.4-0.4,0.7-0.3,1.5c0.7,0,1.6,0,2.1,0
			c0.1,0,0.2-0.1,0.2-0.2c0-0.4-0.1-0.9-0.2-1.2c-0.2-0.3-0.5-0.6-0.8-0.6C111.6,27.8,111.3,27.9,111,28.3z"/>
		<path class="st2" d="M117,33.2h0.9c0.1,0,0.1,0,0.1-0.1c0-1.5,0-3.3,0-4.8l-1.1-0.1c0-0.5,0-1.1,0-1.5c0.8-0.1,3.7-0.5,3.8-0.5
			l0,0c0.1,0.8,0.1,1.6,0.2,2.4h0.1c1.2-2.2,1.6-2.5,2.5-2.5c0.5,0,1,0.1,1.4,0.2c0,0.9-0.5,2.4-0.9,2.7c-0.2,0-0.7-0.2-1.2-0.2
			c-0.2,0-0.4,0-0.5,0.2c-0.3,0.3-0.6,0.6-1,1.3c-0.2,0.5-0.3,1.1-0.3,1.6c0,0.3,0,0.8,0,1l1.5,0.1c0,0.5,0,1,0,1.5
			c-0.8,0-2,0-2.8,0s-1.9,0-2.7,0C117,34.2,117,33.7,117,33.2z"/>
	</g>
</g>
</svg>
